<?xml version="1.0" encoding="utf-8"?>
<!-- Generator: Adobe Illustrator 22.0.1, SVG Export Plug-In . SVG Version: 6.00 Build 0)  -->
<svg version="1.1" id="Layer_1" xmlns="http://www.w3.org/2000/svg" xmlns:xlink="http://www.w3.org/1999/xlink" x="0px" y="0px"
	 viewBox="0 0 300 300" style="enable-background:new 0 0 300 300;" xml:space="preserve">
<style type="text/css">
	.st0{fill:#E8F0F6;}
	.st1{fill:#899DAB;}
</style>
<rect class="st0" width="300" height="300"/>
<path class="st1" d="M76.4,62.9V54H54.2v40h44.4V62.9H76.4z M63.1,89.6h-4.4v-4.4h4.4V89.6z M63.1,80.7h-4.4v-4.4h4.4V80.7z
	 M63.1,71.8h-4.4v-4.4h4.4V71.8z M63.1,62.9h-4.4v-4.4h4.4V62.9z M72,89.6h-4.4v-4.4H72V89.6z M72,80.7h-4.4v-4.4H72V80.7z M72,71.8
	h-4.4v-4.4H72V71.8z M72,62.9h-4.4v-4.4H72V62.9z M94.2,89.6H76.4v-4.4h4.4v-4.4h-4.4v-4.4h4.4v-4.4h-4.4v-4.4h17.8V89.6z
	 M89.8,71.8h-4.4v4.4h4.4V71.8z M89.8,80.7h-4.4v4.4h4.4V80.7z"/>
<path class="st1" d="M220.6,84.1v-2.2h-15.7l0,9c0,2.5,2,4.5,4.5,4.5h31.4c2.5,0,4.5-2,4.5-4.5v-9h-15.7v2.2H220.6z M243,64h-9v-4.5
	l-4.5-4.5h-9l-4.5,4.5V64h-8.9c-2.5,0-4.5,2-4.5,4.5v6.7c0,2.5,2,4.5,4.5,4.5h13.4v-4.5h9v4.5H243c2.5,0,4.5-2,4.5-4.5v-6.7
	C247.5,66,245.5,64,243,64z M229.6,64h-9v-4.5h9V64z"/>
<path class="st1" d="M69,243c0,1.1,0.9,2,2,2h8c1.1,0,2-0.9,2-2v-2H69V243z M75,205c-7.7,0-14,6.3-14,14c0,4.8,2.4,8.9,6,11.5v4.5
	c0,1.1,0.9,2,2,2h12c1.1,0,2-0.9,2-2v-4.5c3.6-2.5,6-6.7,6-11.5C89,211.3,82.7,205,75,205z M80.7,227.2l-1.7,1.2v4.6h-8v-4.6
	l-1.7-1.2c-2.7-1.9-4.3-4.9-4.3-8.2c0-5.5,4.5-10,10-10c5.5,0,10,4.5,10,10C85,222.3,83.4,225.3,80.7,227.2z"/>
<path class="st1" d="M235.1,227.3c-2.6,0-6.6,0.7-9.6,2.1c-3.1-1.4-7.1-2.1-9.6-2.1c-4.6,0-13.9,2.3-13.9,6.9v5.9h47v-5.9
	C249,229.7,239.7,227.3,235.1,227.3z M226.6,237h-21.4v-2.7c0-1.2,5.5-3.7,10.7-3.7c5.2,0,10.7,2.6,10.7,3.7V237z M245.8,237h-16
	v-2.7c0-1-0.4-1.8-1.1-2.6c1.9-0.6,4.2-1.1,6.5-1.1c5.2,0,10.7,2.6,10.7,3.7V237z M215.9,225.2c4.1,0,7.5-3.4,7.5-7.5
	s-3.4-7.5-7.5-7.5s-7.5,3.4-7.5,7.5S211.8,225.2,215.9,225.2z M215.9,213.5c2.3,0,4.3,1.9,4.3,4.3s-1.9,4.3-4.3,4.3
	c-2.4,0-4.3-1.9-4.3-4.3S213.5,213.5,215.9,213.5z M235.1,225.2c4.1,0,7.5-3.4,7.5-7.5s-3.4-7.5-7.5-7.5s-7.5,3.4-7.5,7.5
	S231,225.2,235.1,225.2z M235.1,213.5c2.4,0,4.3,1.9,4.3,4.3s-1.9,4.3-4.3,4.3c-2.3,0-4.3-1.9-4.3-4.3S232.8,213.5,235.1,213.5z"/>
</svg>
